<svg xmlns="http://www.w3.org/2000/svg" xmlns:xlink="http://www.w3.org/1999/xlink" width="54.663cm" height="30.8cm" viewBox="2.3 2.25 56.963 33.05"><style>.class.background{fill:#fff;stroke:none;stroke-width:0}.class.area{fill:none;stroke:#000;stroke-width:.1}.class.label{fill:#000;font-size:.8px;font-family:sans;font-style:normal;font-weight:700}.attr.label,.virtual.attr.label{font-size:.5px}.virtual.area{fill:none;stroke:#410;stroke-width:.1}.virtual.label{fill:#410;font-size:.8px;font-family:sans;font-style:normal;font-weight:700}.subclass.line{fill:none;stroke:#077;stroke-width:.2}.subclass.inner{fill:#fff;stroke:none;stroke-width:.1}.subclass.outer{fill:none;stroke:#077;stroke-width:.1}.assoc.card,.assoc.label{fill:#770;font-size:.7px;font-family:monospace;font-style:normal;font-weight:lighter}.assoc.arrow,.assoc.line{stroke-width:.1}.assoc.line{fill:none;stroke:#770}.assoc.arrow{fill:#770;stroke:none}</style><rect width="7.045" height="1.4" x="25.2" y="2.3" class="class title background"/><rect width="7.045" height="1.4" x="25.2" y="2.3" class="class title area"/><text x="28.723" y="3.25" class="class label" text-anchor="middle">Schema</text><rect width="7.045" height="1" x="25.2" y="3.7" class="class attrs background"/><rect width="7.045" height="1" x="25.2" y="3.7" class="class attrs area"/><text x="25.35" y="4.4" class="attr label" text-anchor="start">+startAct: SemAct</text><rect width="8.218" height="1.4" x="13.8" y="7.95" class="class virtual title background"/><rect width="8.218" height="1.4" x="13.8" y="7.95" class="class virtual title area"/><text x="17.909" y="8.9" fill="red" class="class virtual label" text-anchor="middle">ShapeExpression</text><rect width="8.218" height="1" x="13.8" y="9.35" class="class virtual attrs background"/><rect width="8.218" height="1" x="13.8" y="9.35" class="class virtual attrs area"/><text x="13.95" y="10.05" class="attr virtual label" text-anchor="start">+label: ID</text><polyline points="25.2 4.7 25.2 5.05 13.8 5.05 13.8 7.95" class="assoc line"/><text x="19.5" y="4.9" class="assoc label" text-anchor="middle">start</text><polygon id="startArrow" points="18.338 4.9 18.338 4.5 17.938 4.7" class="assoc arrow"/><text x="14" y="7.75" class="assoc card" text-anchor="start">0..1</text><polyline points="28.723 4.75 28.723 6.2 17.909 6.2 17.909 7.903" class="assoc line"/><text x="23.316" y="6.05" class="assoc label" text-anchor="middle">shapes</text><polygon id="shapesArrow" points="21.961 6.05 21.961 5.65 21.561 5.85" class="assoc arrow"/><text x="18.109" y="7.703" class="assoc card" text-anchor="start">0..*</text><rect width="4.375" height="1.4" x="2.35" y="14.9" class="class title background"/><rect width="4.375" height="1.4" x="2.35" y="14.9" class="class title area"/><text x="4.538" y="15.85" class="class label" text-anchor="middle">ShapeOr</text><rect width="4.375" height=".4" x="2.35" y="16.3" class="class attrs background"/><rect width="4.375" height=".4" x="2.35" y="16.3" class="class attrs area"/><polyline points="12.888 7.95 2.618 7.95 2.618 14.9 2.35 14.9" class="subclass line"/><polygon points="12.888 8.35 13.688 7.95 12.888 7.55" class="subclass inner"/><polygon points="12.888 8.35 13.688 7.95 12.888 7.55" class="subclass outer"/><polyline points="3.268 14.8 3.2 14.8 3.2 9.05 13.718 9.05" class="assoc line"/><text x="3.3" y="11.775" class="assoc label" text-anchor="start">shapeExprs</text><polygon id="ShapeOrshapeExprsArrow" points="7.25 11.775 7.25 11.375 7.65 11.575" class="assoc arrow"/><text x="13.518" y="8.9" class="assoc card" text-anchor="end">2..*</text><rect width="5.062" height="1.4" x="7.95" y="14.95" class="class title background"/><rect width="5.062" height="1.4" x="7.95" y="14.95" class="class title area"/><text x="10.481" y="15.9" class="class label" text-anchor="middle">ShapeAnd</text><rect width="5.062" height=".4" x="7.95" y="16.35" class="class attrs background"/><rect width="5.062" height=".4" x="7.95" y="16.35" class="class attrs area"/><polyline points="13.8 11.262 13.8 10.85 7.95 10.85 7.95 14.95" class="subclass line"/><polygon points="14.2 11.262 13.8 10.462 13.4 11.262" class="subclass inner"/><polygon points="14.2 11.262 13.8 10.462 13.4 11.262" class="subclass outer"/><polyline points="13.8 10.35 13.8 11.8 10.481 11.8 10.481 14.9" class="assoc line"/><text x="12.141" y="11.65" class="assoc label" text-anchor="middle">shapeExprs</text><polygon points="14.166 11.65 14.166 11.25 14.566 11.45" class="assoc arrow"/><text x="10.681" y="14.7" class="assoc card" text-anchor="start">0..*</text><rect width="4.902" height="1.4" x="13.9" y="14.95" class="class title background"/><rect width="4.902" height="1.4" x="13.9" y="14.95" class="class title area"/><text x="16.351" y="15.9" class="class label" text-anchor="middle">ShapeNot</text><rect width="4.902" height=".4" x="13.9" y="16.35" class="class attrs background"/><rect width="4.902" height=".4" x="13.9" y="16.35" class="class attrs area"/><polyline points="13.8 11.262 13.8 13.225 14.5 13.225 14.5 15.3" class="subclass line"/><polygon points="14.2 11.262 13.8 10.462 13.4 11.262" class="subclass inner"/><polygon points="14.2 11.262 13.8 10.462 13.4 11.262" class="subclass outer"/><polyline points="16.351 14.901 16.351 12.55 17.909 12.55 17.909 10.399" class="assoc line"/><text x="17.13" y="12.4" class="assoc label" text-anchor="middle">shapeExpr</text><polygon points="18.962 12.4 18.962 12 19.362 12.2" class="assoc arrow"/><rect width="11.28" height="1.4" x="19.868" y="15.65" class="class title background"/><rect width="11.28" height="1.4" x="19.868" y="15.65" class="class title area"/><text x="25.508" y="16.6" class="class label" text-anchor="middle">NodeConstraint</text><rect width="11.28" height="2.6" x="19.868" y="17.05" class="class attrs background"/><rect width="11.28" height="2.6" x="19.868" y="17.05" class="class attrs area"/><text x="20.018" y="17.75" class="attr label" text-anchor="start">+nodeKind: IRI|BNode|Literal</text><text x="20.018" y="18.55" class="attr label" text-anchor="start">+datatype: IRI</text><text x="20.018" y="19.35" class="attr label" text-anchor="start">+xsFacet: XMLSchemaFacet</text><polyline points="17.909 11.262 17.909 13.4 19.868 13.4 19.868 15.65" class="subclass line"/><polygon points="18.309 11.262 17.909 10.462 17.509 11.262" class="subclass inner"/><polygon points="18.309 11.262 17.909 10.462 17.509 11.262" class="subclass outer"/><rect width="6.66" height="1.4" x="31.818" y="15.65" class="class title background"/><rect width="6.66" height="1.4" x="31.818" y="15.65" class="class title area"/><text x="35.148" y="16.6" class="class label" text-anchor="middle">Shape</text><rect width="6.66" height="2.6" x="31.818" y="17.05" class="class attrs background"/><rect width="6.66" height="2.6" x="31.818" y="17.05" class="class attrs area"/><text x="31.968" y="17.75" class="attr label" text-anchor="start">+closed: BOOL</text><text x="31.968" y="18.55" class="attr label" text-anchor="start">+extra: IRI</text><text x="31.968" y="19.35" class="attr label" text-anchor="start">+semActs: SemAct</text><polyline points="22.017 11.262 22.017 13.4 31.818 13.4 31.818 15.65" class="subclass line"/><polygon points="22.417 11.262 22.017 10.462 21.617 11.262" class="subclass inner"/><polygon points="22.417 11.262 22.017 10.462 21.617 11.262" class="subclass outer"/><polyline points="17.909 9.15 17.909 9.35 35.148 9.35 35.148 15.65" class="assoc line"/><text x="26.528" y="9.2" class="assoc label" text-anchor="middle">expression</text><polygon points="24.403 9.2 24.403 8.8 24.003 9" class="assoc arrow"/><text x="35.348" y="15.45" class="assoc card" text-anchor="start">0..1</text><rect width="7.935" height="1.4" x="42.018" y="9" class="class virtual title background"/><rect width="7.935" height="1.4" x="42.018" y="9" class="class virtual title area"/><text x="45.985" y="9.95" class="class virtual label" text-anchor="middle">TripleExpression</text><rect width="7.935" height="1" x="42.018" y="10.4" class="class virtual attrs background"/><rect width="7.935" height="1" x="42.018" y="10.4" class="class virtual attrs area"/><text x="42.168" y="11.1" class="attr virtual label" text-anchor="start">+semActs: SemAct</text><rect width="3.32" height="1.4" x="40.117" y="13.95" class="class title background"/><rect width="3.32" height="1.4" x="40.117" y="13.95" class="class title area"/><text x="41.777" y="14.9" class="class label" text-anchor="middle">OneOf</text><rect width="3.32" height=".4" x="40.117" y="15.35" class="class attrs background"/><rect width="3.32" height=".4" x="40.117" y="15.35" class="class attrs area"/><polyline points="41.106 9.7 40.017 9.7 40.017 13.75" class="subclass line"/><polygon points="41.106 10.1 41.906 9.7 41.106 9.3" class="subclass inner"/><polygon points="41.106 10.1 41.906 9.7 41.106 9.3" class="subclass outer"/><polyline points="36.518 15.7 36.367 15.7 36.367 9.7 42.018 9.7" class="assoc line"/><text x="36.468" y="12.55" class="assoc label" text-anchor="start">expression</text><polygon points="40.418 12.55 40.418 12.15 40.818 12.35" class="assoc arrow"/><text x="41.818" y="9.55" class="assoc card" text-anchor="end">2..*</text><polyline points="41.777 13.95 41.777 12.9 40.777 12.9 40.777 9.7 42.018 9.7" class="assoc line"/><text x="41.277" y="12.75" class="assoc label" text-anchor="middle">expressions</text><polygon points="43.495 12.75 43.495 12.35 43.895 12.55" class="assoc arrow"/><text x="41.818" y="9.55" class="assoc card" text-anchor="end">2..*</text><rect width="3.66" height="1.4" x="44.273" y="13.935" class="class title background"/><rect width="3.66" height="1.4" x="44.273" y="13.935" class="class title area"/><text x="46.103" y="14.885" class="class label" text-anchor="middle">EachOf</text><rect width="3.66" height=".4" x="44.273" y="15.335" class="class attrs background"/><rect width="3.66" height=".4" x="44.273" y="15.335" class="class attrs area"/><polyline points="42.018 12.312 42.018 12.9 44.273 12.9 44.273 13.935" class="subclass line"/><polygon points="42.418 12.312 42.018 11.512 41.618 12.312" class="subclass inner"/><polygon points="42.418 12.312 42.018 11.512 41.618 12.312" class="subclass outer"/><polyline points="45.985 11.45 45.985 12.368 46.103 12.368 46.103 13.885" class="assoc line"/><text x="46.044" y="12.218" class="assoc label" text-anchor="middle">expressions</text><polygon points="48.261 12.218 48.261 11.818 48.661 12.018" class="assoc arrow"/><text x="46.303" y="13.685" class="assoc card" text-anchor="start">2..*</text><rect width="7.745" height="1.4" x="49.168" y="13.95" class="class title background"/><rect width="7.745" height="1.4" x="49.168" y="13.95" class="class title area"/><text x="53.04" y="14.9" class="class label" text-anchor="middle">TripleConstraint</text><rect width="7.745" height="3.4" x="49.168" y="15.35" class="class attrs background"/><rect width="7.745" height="3.4" x="49.168" y="15.35" class="class attrs area"/><text x="49.318" y="16.05" class="attr label" text-anchor="start">+inverse: BOOL</text><text x="49.318" y="16.85" class="attr label" text-anchor="start">+predicate: IRI</text><text x="49.318" y="17.65" class="attr label" text-anchor="start">+min: INT</text><text x="49.318" y="18.45" class="attr label" text-anchor="start">+max: INT</text><polyline points="49.953 12.312 49.953 13.05 53.04 13.05 53.04 13.9" class="subclass line"/><polygon points="50.353 12.312 49.953 11.512 49.553 12.312" class="subclass inner"/><polygon points="50.353 12.312 49.953 11.512 49.553 12.312" class="subclass outer"/><polyline points="53.04 13.902 53.04 8 21.968 8 21.968 7.75" class="assoc line"/><text x="37.504" y="7.85" class="assoc label" text-anchor="middle">valueExpr</text><polygon points="35.571 7.85 35.571 7.45 35.171 7.65" class="assoc arrow"/><text x="22.168" y="8.35" class="assoc card" text-anchor="start">0..1</text><rect width="6.935" height="1.4" x="4.618" y="17.65" class="class virtual title background"/><rect width="6.935" height="1.4" x="4.618" y="17.65" class="class virtual title area"/><text x="8.085" y="18.6" class="class virtual label" text-anchor="middle">valueSetValue</text><polyline points="19.868 18.35 15.735 18.35 15.735 18.35 11.602 18.35" class="assoc line"/><text x="15.735" y="18.2" class="assoc label" text-anchor="middle">values</text><polygon points="14.38 18.2 14.38 17.8 13.98 18" class="assoc arrow"/><text x="11.802" y="18.2" class="assoc card" text-anchor="start">1..*</text><rect width="4.16" height="1.4" x="25.218" y="31.2" class="class title background"/><rect width="4.16" height="1.4" x="25.218" y="31.2" class="class title area"/><text x="27.298" y="32.15" class="class label" text-anchor="middle">valueIRI</text><rect width="4.16" height=".4" x="25.218" y="32.6" class="class attrs background"/><rect width="4.16" height=".4" x="25.218" y="32.6" class="class attrs area"/><polyline points="29.009 29.36 29.009 29.8 27.298 29.8 27.298 31.151" class="subclass line"/><polygon points="29.409 29.36 29.009 28.56 28.609 29.36" class="subclass inner"/><polygon points="29.409 29.36 29.009 28.56 28.609 29.36" class="subclass outer"/><rect width="5.87" height="1.4" x="30.768" y="31.15" class="class title background"/><rect width="5.87" height="1.4" x="30.768" y="31.15" class="class title area"/><text x="33.703" y="32.1" class="class label" text-anchor="middle">valueLiteral</text><rect width="5.87" height=".4" x="30.768" y="32.55" class="class attrs background"/><rect width="5.87" height=".4" x="30.768" y="32.55" class="class attrs area"/><polyline points="29.009 29.36 29.009 29.8 33.703 29.8 33.703 31.1" class="subclass line"/><polygon points="29.409 29.36 29.009 28.56 28.609 29.36" class="subclass inner"/><polygon points="29.409 29.36 29.009 28.56 28.609 29.36" class="subclass outer"/><rect width="4.35" height="1.4" x="11.318" y="26.9" class="class title background"/><rect width="4.35" height="1.4" x="11.318" y="26.9" class="class title area"/><text x="13.493" y="27.85" class="class label" text-anchor="middle">Stem</text><rect width="4.35" height="1" x="11.318" y="28.3" class="class attrs background"/><rect width="4.35" height="1" x="11.318" y="28.3" class="class attrs area"/><text x="11.468" y="29" class="attr label" text-anchor="start">+stem: IRI</text><polyline points="15.573 24.412 15.573 25.5 13.493 25.5 13.493 26.85" class="subclass line"/><polygon points="15.973 24.412 15.573 23.612 15.173 24.412" class="subclass inner"/><polygon points="15.973 24.412 15.573 23.612 15.173 24.412" class="subclass outer"/><rect width="5.673" height="1.4" x="4.268" y="26.8" class="class title background"/><rect width="5.673" height="1.4" x="4.268" y="26.8" class="class title area"/><text x="7.104" y="27.75" class="class label" text-anchor="middle">StemRange</text><rect width="5.673" height=".4" x="4.268" y="28.2" class="class attrs background"/><rect width="5.673" height=".4" x="4.268" y="28.2" class="class attrs area"/><polyline points="8.085 19.962 8.085 20.95 4.268 20.95 4.268 26.8" class="subclass line"/><polygon points="8.485 19.962 8.085 19.162 7.685 19.962" class="subclass inner"/><polygon points="8.485 19.962 8.085 19.162 7.685 19.962" class="subclass outer"/><rect width="9.41" height="1.4" x="10.868" y="22.05" class="class virtual title background"/><rect width="9.41" height="1.4" x="10.868" y="22.05" class="class virtual title area"/><text x="15.573" y="23" class="class virtual label" text-anchor="middle">objectValueORStem</text><rect width="4.488" height="1.4" x="17.068" y="31.15" class="class attrs background"/><rect width="4.488" height="1.4" x="17.068" y="31.15" class="class attrs area"/><text x="19.311" y="32.1" class="class label" text-anchor="middle">Wildcard</text><rect width="5.783" height="1.4" x="26.118" y="27" class="class virtual title background"/><rect width="5.783" height="1.4" x="26.118" y="27" class="class virtual title area"/><text x="29.009" y="27.95" class="class virtual label" text-anchor="middle">objectValue</text><polyline points="15.573 24.412 15.573 25.5 29.009 25.5 29.009 26.95" class="subclass line"/><polygon points="15.973 24.412 15.573 23.612 15.173 24.412" class="subclass inner"/><polygon points="15.973 24.412 15.573 23.612 15.173 24.412" class="subclass outer"/><polyline points="8.085 20.012 8.085 20.95 15.573 20.95 15.573 22" class="subclass line"/><polygon points="8.485 20.012 8.085 19.212 7.685 20.012" class="subclass inner"/><polygon points="8.485 20.012 8.085 19.212 7.685 20.012" class="subclass outer"/><rect width="6.992" height="1.4" x="16.518" y="27.15" class="class virtual title background"/><rect width="6.992" height="1.4" x="16.518" y="27.15" class="class virtual title area"/><text x="20.014" y="28.1" class="class virtual label" text-anchor="middle">IRIORWildcard</text><polyline points="20.014 29.512 20.014 30.25 19.311 30.25 19.311 31.1" class="subclass line"/><polygon points="20.414 29.512 20.014 28.712 19.614 29.512" class="subclass inner"/><polygon points="20.414 29.512 20.014 28.712 19.614 29.512" class="subclass outer"/><polyline points="20.014 29.512 20.014 30.25 25.218 30.25 25.218 31.2" class="subclass line"/><polygon points="20.414 29.512 20.014 28.712 19.614 29.512" class="subclass inner"/><polygon points="20.414 29.512 20.014 28.712 19.614 29.512" class="subclass outer"/><polyline points="7.104 26.75 7.104 25.05 10.868 25.05 10.868 23.45" class="assoc line"/><text x="8.986" y="24.9" class="assoc label" text-anchor="middle">exclusions</text><polygon points="11.011 24.9 11.011 24.5 11.411 24.7" class="assoc arrow"/><text x="11.068" y="24.05" class="assoc card" text-anchor="start">1..*</text><polyline points="7.104 28.649 7.104 30.6 16.518 30.6 16.518 28.55" class="assoc line"/><text x="11.811" y="30.45" class="assoc label" text-anchor="middle">stem</text><polygon points="12.681 30.45 12.681 30.05 13.081 30.25" class="assoc arrow"/></svg>